<?xml version="1.0" encoding="UTF-8" standalone="no" ?>
<!DOCTYPE svg PUBLIC "-//W3C//DTD SVG 1.1//EN" "http://www.w3.org/Graphics/SVG/1.1/DTD/svg11.dtd">
<svg xmlns="http://www.w3.org/2000/svg" xmlns:xlink="http://www.w3.org/1999/xlink" version="1.1" width="1280" height="1024" viewBox="0 0 1280 1024" xml:space="preserve">
<desc>Created with Fabric.js 5.3.0</desc>
<defs>
</defs>
<g transform="matrix(1 0 0 1 640 512)" id="background-logo"  >
<rect style="stroke: none; stroke-width: 0; stroke-dasharray: none; stroke-linecap: butt; stroke-dashoffset: 0; stroke-linejoin: miter; stroke-miterlimit: 4; fill: rgb(255,255,255); fill-opacity: 0; fill-rule: nonzero; opacity: 1;"  paint-order="stroke"  x="-640" y="-512" rx="0" ry="0" width="1280" height="1024" />
</g>
<g transform="matrix(1.9211538461538462 0 0 1.9211538461538462 640 404.1055822583345)" id="logo-logo"  >
<g style=""  paint-order="stroke"   >
		<g transform="matrix(0.29081520063372185 0 0 0.29081520063372185 -8.396410239175111 1.932365104245747)"  >
<linearGradient id="SVGID_21_10_10_436537" gradientUnits="userSpaceOnUse" gradientTransform="matrix(1 0 0 1 0 0)"  x1="272.5004272" y1="711.8560181" x2="591.7718506" y2="428.4789734">
<stop offset="12.141359999999999%" style="stop-color:rgb(152,128,176);stop-opacity: 1"/>
<stop offset="28.235919999999997%" style="stop-color:rgb(147,124,173);stop-opacity: 1"/>
<stop offset="46.86726%" style="stop-color:rgb(133,111,166);stop-opacity: 1"/>
<stop offset="66.75945%" style="stop-color:rgb(110,90,154);stop-opacity: 1"/>
<stop offset="87.40768%" style="stop-color:rgb(78,60,137);stop-opacity: 1"/>
<stop offset="88.94753%" style="stop-color:rgb(75,58,136);stop-opacity: 1"/>
</linearGradient>
<path style="stroke: none; stroke-width: 1; stroke-dasharray: none; stroke-linecap: butt; stroke-dashoffset: 0; stroke-linejoin: miter; stroke-miterlimit: 4; fill: url(#SVGID_21_10_10_436537); fill-rule: nonzero; opacity: 1;"  paint-order="stroke"  transform=" translate(-515.0578527543157, -474.0104252536481)" d="M 801.4793701 358.8031006 C 782.7235107 370.4805908 763.078125 382.3758545 746.2124023 369.3526917 C 688.1377563 324.5540772 607.3909301 281.79556279999997 534.7185669 296.6517945 C 528.5405273 297.9161683 522.3910523000001 299.5828858 516.3279419 301.7380372 C 439.7475891 328.7781068 389.66152950000003 390.4446717 388.4259033000001 470.9042054 C 387.44882200000006 535.0994874 420.55224610000005 592.5130616 471.87390130000006 631.1048585000001 C 526.7875366000001 672.3978273000001 607.0173339 692.8862916 670.1492919000001 662.4552613000001 C 722.4768065000001 637.1967774000001 768.7294921000001 662.9046021 762.3500976000001 697.1862794000001 C 762.0628051000001 698.6804200000001 748.6260986000001 700.6448976000001 748.1376342000001 702.1677857000001 C 745.3215942 704.7540894000001 752.5564574000001 711.2784424000001 752.5564574000001 711.2784424000001 C 636.1486815000001 809.8413086000002 464.23031600000013 815.2996216000001 343.2247618000001 714.1506348000001 C 209.6619263 602.4556274 190.3517151 404.812439 298.5122375 269.4966736 C 300.00653070000004 267.6577454 301.529602 265.8186035 303.0524902 263.9794922 C 337.07546990000003 223.31880189999998 379.02932740000006 193.23258969999998 424.83380120000004 174.1521454 C 425.1210937 174.0085144 425.40856930000007 173.8648682 425.69583120000004 173.7785797 C 432.93524160000004 170.7807464 440.26861560000003 168.0569305 447.6793822 165.6085968 L 536.133972 160.3818054 C 536.133972 160.3818054 614.3925168999999 178.7236481 626.1312865 185.32670589999998 C 637.8701171 191.9297638 662.0813597 206.60324089999997 687.026245 223.47773739999997 C 711.9711303 240.35223389999996 747.1874999 240.96362299999996 775.8007811 277.34158319999995 C 804.4140623 313.7195433999999 797.6231689 361.1986389 801.4793701 358.8031006 z" stroke-linecap="round" />
</g>
		<g transform="matrix(0.29081520063372185 0 0 0.29081520063372185 -1.741543438030078 -3.7418693173387965)"  >
<linearGradient id="SVGID_22_11_11_436538" gradientUnits="userSpaceOnUse" gradientTransform="matrix(1 0 0 1 0 0)"  x1="298.5409851" y1="456.8222656" x2="777.3416748" y2="456.8222656">
<stop offset="22.98454%" style="stop-color:rgb(35,27,86);stop-opacity: 1"/>
<stop offset="66.13006999999999%" style="stop-color:rgb(75,58,136);stop-opacity: 1"/>
</linearGradient>
<path style="stroke: none; stroke-width: 1; stroke-dasharray: none; stroke-linecap: butt; stroke-dashoffset: 0; stroke-linejoin: miter; stroke-miterlimit: 4; fill: url(#SVGID_22_11_11_436538); fill-rule: nonzero; opacity: 1;"  paint-order="stroke"  transform=" translate(-537.9413429798722, -456.82225024239494)" d="M 746.2124023 369.3526917 C 729.5793457 348.34704589999996 659.34729 306.2086792 600.3520507000001 299.61428839999996 L 600.3520507000001 387.8204957 L 644.3730468000001 595.7058106 C 646.0867309000001 594.7585449999999 648.2301635000001 593.9970093 650.9827270000001 593.4899293 C 654.8906860000001 592.7715455 658.9137573 592.1682129999999 663.0228881 591.6510010999999 C 687.0170287000001 588.7487183999999 713.6549682000001 590.185486 735.8674926000001 600.0992432999999 L 735.9825439000001 600.0992432999999 C 744.4307861000001 603.8923951999999 752.2180175000001 608.8635865999998 758.9710083000001 615.3291016999999 C 782.0976562000001 637.5240479999999 782.0620117000001 665.1940308999999 766.2630005000001 692.0505371999999 C 748.7384644000001 721.8405151999999 713.0575562000001 740.3428955999999 680.3610840000001 746.2202148999999 C 647.0701904000001 752.2044067999999 610.5214234000001 752.3623657999999 577.1242066000001 747.4598388999999 C 482.6095887000001 733.5855102999999 386.0802613000001 680.6989745999999 351.5563660000001 589.1664428999999 C 331.1630860000001 535.0980224999998 327.65087890000007 472.92758179999987 346.9574585000001 418.2765807999999 C 376.1313782000001 335.6941222999999 433.9361572000001 281.76596069999994 532.4053955 262.64608759999993 C 538.4545288 261.47152709999995 544.3872681 259.84320059999993 550.4741211 258.84606929999995 C 551.3759766000001 258.6983337 557.1945801 257.11468499999995 557.9390259 257.81652829999996 C 508.93862920000004 211.62025449999996 404.06646730000006 170.57389829999994 298.54098510000006 269.52542109999996 C 300.00653080000006 267.6577453 301.52960200000007 265.81860349999994 303.0524902000001 263.97949209999996 C 337.0754699000001 223.31880179999996 379.02932740000006 193.23258959999995 424.8338012000001 174.15214529999997 C 425.1210937000001 174.00851429999997 425.40856930000007 173.86486809999997 425.6958312000001 173.77857959999997 C 443.6763610000001 166.33287039999996 461.85543810000013 166.74757369999998 480.7416076000001 162.70510849999997 C 480.7416076000001 162.70510849999997 593.1159667000002 163.23059069999996 595.0724487000001 164.98544299999998 C 597.0289306000001 166.7403106 677.2439575000001 220.54304489999998 679.6895141000001 224.45596299999997 C 682.1350707000001 228.36888109999995 748.2814941 371.9656982 746.2124023 369.3526917 z" stroke-linecap="round" />
</g>
		<g transform="matrix(0.29081520063372185 0 0 0.29081520063372185 -0.03909070892592581 32.90535965932355)"  >
<linearGradient id="SVGID_23_12_12_436539" gradientUnits="userSpaceOnUse" gradientTransform="matrix(1 0 0 1 0 0)"  x1="673.1821289" y1="700.1137085" x2="306.5444946" y2="460.3049927">
<stop offset="22.98454%" style="stop-color:rgb(35,27,86);stop-opacity: 1"/>
<stop offset="93.59906%" style="stop-color:rgb(35,27,86);stop-opacity: 1"/>
</linearGradient>
<path style="stroke: none; stroke-width: 1; stroke-dasharray: none; stroke-linecap: butt; stroke-dashoffset: 0; stroke-linejoin: miter; stroke-miterlimit: 4; fill: url(#SVGID_23_12_12_436539); fill-rule: nonzero; opacity: 1;"  paint-order="stroke"  transform=" translate(-543.7954136247156, -582.8377710845091)" d="M 591.6482544 710.2701416 C 492.6320496000001 712.7049561 395.5814209 656.3825073 369.5807495 556.9019165 C 363.2919311 532.8403931 361.7012024 507.4527283 363.02359010000004 482.68569949999994 C 363.51205450000003 473.54782109999996 364.4603882 464.3811645999999 366.01220700000005 455.3295898999999 L 371.38574220000004 455.3295898999999 C 371.04092410000004 463.11679079999993 371.09826660000004 470.9042053999999 371.58691410000006 478.66281129999993 C 377.7361756000001 577.2832642 457.10379030000007 656.5645142 546.7875367 661.5932617 C 578.3103638 663.3748168999999 597.5344849 648.5761107999999 626.7874146 634.5531616 C 649.6895752 623.5474243 625.5516358 598.1738891 650.9827271 593.4899292 C 654.8906861 592.7715454 658.9137574 592.1682129 663.0228882 591.651001 L 713.1235962000001 610.7375489 C 713.1235962000001 610.7375489 713.2386475000001 610.7375489 713.2386475000001 610.7661134 C 741.3181152 630.6665649 725.9109497 706.9685669 591.6482544 710.2701416 z" stroke-linecap="round" />
</g>
		<g transform="matrix(0.29081520063372185 0 0 0.29081520063372185 6.72059429895819 5.17102401522078)"  >
<linearGradient id="SVGID_24_13_13_436540" gradientUnits="userSpaceOnUse" gradientTransform="matrix(1 0 0 1 0 0)"  x1="776.1196899" y1="579.7529297" x2="350.5921021" y2="391.9338684">
<stop offset="25.54636%" style="stop-color:rgb(142,142,189);stop-opacity: 1"/>
<stop offset="81.88766%" style="stop-color:rgb(173,186,218);stop-opacity: 1"/>
</linearGradient>
<path style="stroke: none; stroke-width: 1; stroke-dasharray: none; stroke-linecap: butt; stroke-dashoffset: 0; stroke-linejoin: miter; stroke-miterlimit: 4; fill: url(#SVGID_24_13_13_436540); fill-rule: nonzero; opacity: 1;"  paint-order="stroke"  transform=" translate(-567.0393327635844, -487.47021263616716)" d="M 770.0916748 487.5995483 C 770.0916748 506.6799926 767.4192505 525.81781 761.9882202 544.3809814 C 755.6375732 566.1911621 745.522583 587.2256469 731.5283813 606.5072631 C 731.5283813 606.5072631 731.5283813 606.5072631 731.4998168 606.5360107 C 728.7411498 610.3291015 725.8675536 614.0646972000001 722.7928466 617.7141723 C 650.8676757 703.748413 522.8220213999999 715.1851196 436.78771959999995 643.2312011 C 350.7536314999999 571.3062133000001 339.34551989999994 443.26062 411.27072129999993 357.2263793 C 459.0865476999999 300.013977 531.7589109999999 275.7897643 600.3506467999999 287.1403502 C 600.3506467999999 287.1403502 600.3506467999999 287.1403502 600.3794554 287.1690978 C 634.9482419999999 292.85867299999995 668.4825438 307.6000365 697.2756346 331.7091979 C 700.9251097 334.7551574 704.4595335 337.9160155 707.8503416 341.19189439999997 C 748.9421387 380.6744995 770.0916748 433.9503174 770.0916748 487.5995483 z" stroke-linecap="round" />
</g>
		<g transform="matrix(0.29081520063372185 0 0 0.29081520063372185 16.408458972214305 4.161373671899696)"  >
<radialGradient id="SVGID_25_14_14_436541" gradientUnits="userSpaceOnUse" gradientTransform="matrix(2.8735557 0 0 2.8735554 -687.0440674 -1256.258667)"  cx="451.8798218" cy="608.3964844" r="86.4669037" fx="451.8798218" fy="608.3964844">
<stop offset="0.000039999999999999996%" style="stop-color:rgb(254,255,255);stop-opacity: 1"/>
<stop offset="17.06519%" style="stop-color:rgb(228,233,243);stop-opacity: 1"/>
<stop offset="40.70604%" style="stop-color:rgb(198,207,229);stop-opacity: 1"/>
<stop offset="60.986419999999995%" style="stop-color:rgb(180,192,221);stop-opacity: 1"/>
<stop offset="75.39671%" style="stop-color:rgb(173,186,218);stop-opacity: 1"/>
</radialGradient>
<path style="stroke: none; stroke-width: 1; stroke-dasharray: none; stroke-linecap: butt; stroke-dashoffset: 0; stroke-linejoin: miter; stroke-miterlimit: 4; fill: url(#SVGID_25_14_14_436541); fill-rule: nonzero; opacity: 1;"  paint-order="stroke"  transform=" translate(-600.3521192071577, -483.9984190671894)" d="M 731.5172729 606.5136719 C 731.5172729 606.5136719 731.5172729 606.5136719 731.498352 606.5362549 C 668.1297606999999 671.5452271 564.3259886999999 677.7801514 493.50573729999996 618.5640869 C 419.1874084 556.4230957 409.33627319999994 445.7992859 471.4584351 371.5033874 C 530.6931763 300.660675 633.9384156 288.3980712 707.8389893 341.1782836 C 707.8615723 341.19717399999996 707.8615723 341.19717399999996 707.8615723 341.19717399999996 C 780.7318726 411.2156372 790.8795166 524.6951904 731.5172729 606.5136719 z" stroke-linecap="round" />
</g>
		<g transform="matrix(0.29081520063372185 0 0 0.29081520063372185 44.979017918333795 -14.761578238670893)"  >
<linearGradient id="SVGID_26_15_15_436542" gradientUnits="userSpaceOnUse" gradientTransform="matrix(1 0 0 1 0 0)"  x1="864.7942505" y1="306.964447" x2="495.1489563" y2="550.0385742">
<stop offset="37.33115%" style="stop-color:rgb(142,142,189);stop-opacity: 1"/>
<stop offset="74.29764%" style="stop-color:rgb(173,186,218);stop-opacity: 1"/>
</linearGradient>
<path style="stroke: none; stroke-width: 1; stroke-dasharray: none; stroke-linecap: butt; stroke-dashoffset: 0; stroke-linejoin: miter; stroke-miterlimit: 4; fill: url(#SVGID_26_15_15_436542); fill-rule: nonzero; opacity: 1;"  paint-order="stroke"  transform=" translate(-698.5951233000001, -418.9297711102218)" d="M 707.8503418 341.1918945 C 704.4595337000001 337.9160156 700.9251099 334.7551574 697.2756348 331.709198 C 675.9774170000001 313.8755798 652.0848389 301.1676941 627.0985718000001 293.4576416 C 641.7134400000001 307.2485657 654.3446656000001 337.33963009999997 651.2976074000001 406.8858337 C 646.9934692 505.12844839999997 717.4114380000001 545.4565428999999 761.9882202000001 544.3809814 C 767.4192505000001 525.81781 770.0916748000001 506.6799926 770.0916748000001 487.5995483 C 770.0916748 433.9503174 748.9421387 380.6744995 707.8503418 341.1918945 z" stroke-linecap="round" />
</g>
		<g transform="matrix(0.29081520063372185 0 0 0.29081520063372185 28.491447339169042 -38.23596883843814)"  >
<linearGradient id="SVGID_27_16_16_436543" gradientUnits="userSpaceOnUse" gradientTransform="matrix(1 0 0 1 0 0)"  x1="422.9804382" y1="154.075882" x2="832.8594971" y2="428.9589844">
<stop offset="28.78001%" style="stop-color:rgb(152,128,176);stop-opacity: 1"/>
<stop offset="42.96261%" style="stop-color:rgb(147,124,173);stop-opacity: 1"/>
<stop offset="59.38065%" style="stop-color:rgb(133,111,166);stop-opacity: 1"/>
<stop offset="76.90974%" style="stop-color:rgb(110,90,154);stop-opacity: 1"/>
<stop offset="95.10508%" style="stop-color:rgb(78,60,137);stop-opacity: 1"/>
<stop offset="96.462%" style="stop-color:rgb(75,58,136);stop-opacity: 1"/>
</linearGradient>
<path style="stroke: none; stroke-width: 1; stroke-dasharray: none; stroke-linecap: butt; stroke-dashoffset: 0; stroke-linejoin: miter; stroke-miterlimit: 4; fill: url(#SVGID_27_16_16_436543); fill-rule: nonzero; opacity: 1;"  paint-order="stroke"  transform=" translate(-641.900801465253, -338.210501455081)" d="M 747.0602417 522.1227417 C 728.4915771 515.2119141000001 712.0592041 502.5208435 700.9677124 486.1300659 C 675.5844727 448.5746155 679.5754395 402.5433349 676.489563 359.7342529 C 667.3612061 233.2131042 569.1949463 151.581604 435.2337341 172.2061462 C 429.0178833 173.1892852 425.3189087 174.02937310000002 424.8808288 174.1500244 C 425.1349182 174.0254974 425.4295043 173.89711 425.7055358 173.7909241 C 532.074768 129.72085570000002 658.7399291 144.83515930000002 753.2017821 223.81874090000002 C 793.956787 257.895752 827.9902953 303.0252686 846.5999754999999 353.0175171 C 860.4879149999999 390.3254395 864.2260130999999 435.9842835 849.4870604999999 473.6043091 C 833.6394653 514.0543213 789.1837769 537.8271484 747.0602417 522.1227417 z" stroke-linecap="round" />
</g>
		<g transform="matrix(0.29081520063372185 0 0 0.29081520063372185 28.65535510488047 -35.2881059840731)"  >
<linearGradient id="SVGID_28_17_17_436544" gradientUnits="userSpaceOnUse" gradientTransform="matrix(1 0 0 1 0 0)"  x1="736.2389526" y1="561.9553223" x2="634.5028687" y2="261.6382446">
<stop offset="26.182080000000003%" style="stop-color:rgb(75,58,136);stop-opacity: 1"/>
<stop offset="36.97226%" style="stop-color:rgb(80,63,139);stop-opacity: 1"/>
<stop offset="49.46525%" style="stop-color:rgb(94,77,147);stop-opacity: 1"/>
<stop offset="62.8058%" style="stop-color:rgb(116,100,161);stop-opacity: 1"/>
<stop offset="76.73947%" style="stop-color:rgb(148,133,180);stop-opacity: 1"/>
<stop offset="91.00747%" style="stop-color:rgb(189,174,205);stop-opacity: 1"/>
<stop offset="91.67596%" style="stop-color:rgb(191,176,206);stop-opacity: 1"/>
</linearGradient>
<path style="stroke: none; stroke-width: 1; stroke-dasharray: none; stroke-linecap: butt; stroke-dashoffset: 0; stroke-linejoin: miter; stroke-miterlimit: 4; fill: url(#SVGID_28_17_17_436544); fill-rule: nonzero; opacity: 1;"  paint-order="stroke"  transform=" translate(-642.4644163153511, -348.3470515664276)" d="M 425.7055054 173.7909393 C 433.2042847 171.1403961 440.9587097 169.1355285 448.83065799999997 167.67971799999998 C 456.71661379999995 166.3135376 464.7104493 165.51490779999997 472.730774 165.15624999999997 C 488.7821961 164.48547359999998 504.8997193 165.80877689999997 520.8012086 168.80343629999996 C 552.5120851 175.02856449999996 583.0347901 188.71592709999996 608.5442505999999 209.21621709999997 C 621.331421 219.39433289999997 632.9122925999999 231.20758059999997 642.6496582999999 244.46636969999997 L 646.2922974999999 249.44668589999998 C 647.4525147999999 251.1444398 648.5248413999999 252.9032289 649.6443482999999 254.6306153 L 652.9605713999999 259.8442078 L 656.0202026999999 265.2459717 C 659.9609985999999 272.52212529999997 663.3405761999999 280.0769348 666.2199096999999 287.788208 C 671.9934692999999 303.2235718 675.5614013999999 319.2850647 677.9735107999999 335.3457031 C 680.4105224999998 351.4320984 681.3208007999999 367.6170654 682.2594604999998 383.4286194 C 683.0899047999998 399.2652588 684.0396728999998 414.8926697 686.5212402999998 430.084961 C 687.8453979999998 437.64697270000005 689.4912109999998 445.1060486 691.7295532999998 452.3295594 C 694.0732422999998 459.5031129 696.8812256999998 466.4807435 700.3823242999998 473.0744324 C 707.2866211999998 486.1157532 717.5989380999998 497.3814392 729.9570923999999 505.6460572 C 742.3163452999999 513.8768311 756.6974487999998 519.1905518 771.5131836999999 520.4060059 C 786.2341919999999 521.7361450999999 801.3862915999999 518.2627564 814.4860230999999 511.0669556 C 821.0844727999998 507.52920539999997 827.0296021999999 502.83670049999995 832.2038575999999 497.4333496 C 837.3204957999999 491.9714355 841.4117432999999 485.5853882 844.6201173999999 478.6640625 C 851.1378785999999 464.8033142 853.8792116 449.1290894 855.2322999999999 433.4769592 C 856.5140382999999 417.754303 856.6110230999999 401.8496093 855.6614991999999 385.9749145 C 856.8532716999998 393.8382568 857.8166505999999 401.7494506 858.4448853999999 409.708374 C 858.9989624999998 417.6723938 859.2892457999999 425.6483459 859.2106324999999 433.67074579999996 C 859.0070191999998 449.66366569999997 857.1477052999999 465.99841299999997 851.1026612999999 481.44729609999996 C 848.0617676999999 489.1203308 843.8108521999999 496.49151609999996 838.3668214999999 502.91738889999993 C 832.8707276999999 509.2683715999999 826.4393922999999 514.8576049999999 819.2302858999999 519.201477 C 812.0688478999999 523.6290892999999 804.2163698999999 526.9279785 796.0266115999999 529.0084228 C 787.8695071 531.1564331 779.2823488999999 532.0422973 770.8189699999999 531.5963134 C 753.888428 530.8643797999999 737.2923586999999 525.3258056 723.0762941999999 516.1877441 C 708.8323366999999 507.098114 696.7482912999999 494.48876950000005 688.4489137999999 479.6071167 C 684.2830812999999 472.2636108 681.1726075999999 464.43396 678.5119630999999 456.535553 C 675.9858400999999 448.5910034 674.1511232999999 440.5206909 672.6811525999999 432.4416504 C 669.9318239999999 416.2645569 668.8392946999999 400.1176453 667.9229128999999 384.2343445 C 667.0921023999999 368.32580570000005 666.3144533999999 352.7268067 664.0943606999999 337.3563538 C 661.9500735999999 321.98165900000004 658.5082401 306.8742676 653.4651492999999 292.4082947 C 650.9392093999999 285.1786194 647.9605717 278.1289063 644.4758304999999 271.3543701 L 641.7680058 266.32723999999996 L 638.785706 261.4237366 C 637.7784428 259.7966614 636.8203129 258.1364441 635.7744755 256.5328675 L 632.4759526 251.8251191 C 623.6009526 239.3283845 613.1514287 227.8906403 601.4406132 217.83494579999999 C 577.9692387 197.7696992 549.5604252 183.2544252 519.2731938000001 175.6518098 C 515.4813847 174.72111519999999 511.69635050000005 173.7122804 507.83563280000004 173.0811463 C 503.99533130000003 172.3406525 500.14355520000004 171.6096345 496.24511770000004 171.1041718 C 488.46200610000005 170.0520173 480.6192022 169.40414429999998 472.75085500000006 169.1162415 C 457.0265198 168.6579437 441.1398926 169.8756714 425.7055054 173.7909393 z" stroke-linecap="round" />
</g>
		<g transform="matrix(0.29081520063372185 0 0 0.29081520063372185 3.297940484996616 36.89054695924824)"  >
<linearGradient id="SVGID_29_18_18_436545" gradientUnits="userSpaceOnUse" gradientTransform="matrix(0.9942864 -0.0297322 0.0303735 0.9995421 -17.52668 14.8595314)"  x1="329.9623108" y1="596.2763062" x2="788.0545654" y2="596.2763062">
<stop offset="26.182090000000002%" style="stop-color:rgb(152,128,176);stop-opacity: 1"/>
<stop offset="44.09226%" style="stop-color:rgb(156,133,179);stop-opacity: 1"/>
<stop offset="64.82189000000001%" style="stop-color:rgb(167,147,188);stop-opacity: 1"/>
<stop offset="86.87724%" style="stop-color:rgb(186,170,202);stop-opacity: 1"/>
<stop offset="91.67596%" style="stop-color:rgb(191,176,206);stop-opacity: 1"/>
</linearGradient>
<path style="stroke: none; stroke-width: 1; stroke-dasharray: none; stroke-linecap: butt; stroke-dashoffset: 0; stroke-linejoin: miter; stroke-miterlimit: 4; fill: url(#SVGID_29_18_18_436545); fill-rule: nonzero; opacity: 1;"  paint-order="stroke"  transform=" translate(-555.2701618038025, -596.5412752041028)" d="M 341.1776123 437.1375427 C 335.86376950000005 466.0067138 334.60693360000005 495.54959099999996 338.40844730000003 524.359375 C 342.1244507 553.1380615 350.8096009 581.2111816 364.748169 606.2713623 C 378.5469666 631.4158934999999 397.51226810000003 653.2808838 419.6512452 670.8966064 C 441.7509461 688.7117919 466.5923768 702.9439697 492.7697144 714.1378173 C 518.93573 725.3951415 546.6235962 733.5568236 574.7698975 738.1116332 C 602.9235229999999 742.7902831 631.7202149 743.5118407 660 739.7757567 C 674.1358643 737.8924559 688.0899048 734.6163329 701.6524048 730.1717528 C 715.1966553 725.6962889 728.3482056 719.8433837 740.2772217 712.0930174 C 752.182312 704.4058836 762.9317017000001 694.5341795 769.7312622000001 681.9899901 C 776.6455688000001 669.5232543 778.0381470000001 654.7104491 775.2052002 640.2905882 C 777.2783203 647.3344725 778.7380981 654.413574 778.4483643 661.8918455 C 778.1849366 669.3756101 776.3018189 676.8097532 773.2938233 683.7465818000001 C 767.1607056 697.6926267 756.3237305 708.9957883000001 744.3805543 718.0135496 C 720.0287476999999 735.8119505000001 691.2236329 746.1309202 661.902649 751.6233518 C 632.4636842 757.1212156 602.1896363 757.0391843 572.5713502 753.2592161 C 557.744568 751.3427122 543.0897828 748.2338865 528.666565 744.3532713 C 514.2691040999999 740.4301756 500.0263672 735.7764890999999 486.1643372 730.0505979999999 C 458.4787598 718.6154783999999 432.1541138 703.0560912 409.5526734 682.9744871999999 C 386.753418 663.0224607999999 368.4605103 638.1344602999999 355.4261475 611.1064451999998 C 342.3958741 584.0028684999999 335.0187073 554.5258177999998 332.7584839 524.9345701999998 C 330.5098877 495.2945251 333.7435608 465.5231934 341.1776123 437.1375427 z" stroke-linecap="round" />
</g>
</g>
</g>
<g transform="matrix(1.9211538461538462 0 0 1.9211538461538462 639.0138702298677 674.9438912509843)" id="text-logo"  >
<g style=""  paint-order="stroke"   >
		<g transform="matrix(1 0 0 1 0 0)" id="text-logo-path-0"  >
<path style="stroke: none; stroke-width: 0; stroke-dasharray: none; stroke-linecap: butt; stroke-dashoffset: 0; stroke-linejoin: miter; stroke-miterlimit: 4; fill: rgb(130,109,165); fill-rule: nonzero; opacity: 1;"  paint-order="stroke"  transform=" translate(-260.74, 14.575000000000001)" d="M 8.77 -1.38 L 14.49 -29.15 L 18.12 -29.15 L 20.32 -27.97 L 14.21 0 L 10.17 0 L 8.77 -1.38 Z M 7.83 -29.15 L 12.63 -1.08 L 11.09 0 L 6.43 0 L 0.36 -29.15 L 7.83 -29.15 Z M 22.82 -1.24 L 27.61 -29.15 L 35.03 -29.15 L 28.99 0 L 24.32 0 L 22.82 -1.24 Z M 20.84 -29.15 L 26.73 -1.2 L 25.24 0 L 21.2 0 L 14.95 -28.01 L 17.24 -29.15 L 20.84 -29.15 Z M 68.69 -14.99 L 68.69 -14.13 Q 68.69 -9.61 67.04 -6.36 Q 65.39 -3.1 62.48 -1.35 Q 59.58 0.4 55.84 0.4 L 55.84 0.4 Q 52.05 0.4 49.13 -1.35 Q 46.21 -3.1 44.56 -6.36 Q 42.9 -9.61 42.9 -14.13 L 42.9 -14.13 L 42.9 -14.99 Q 42.9 -19.52 44.55 -22.77 Q 46.19 -26.03 49.1 -27.79 Q 52.01 -29.55 55.8 -29.55 L 55.8 -29.55 Q 59.54 -29.55 62.45 -27.79 Q 65.37 -26.03 67.03 -22.77 Q 68.69 -19.52 68.69 -14.99 L 68.69 -14.99 Z M 61.06 -14.13 L 61.06 -15.03 Q 61.06 -17.8 60.45 -19.66 Q 59.84 -21.52 58.66 -22.46 Q 57.48 -23.4 55.8 -23.4 L 55.8 -23.4 Q 54.04 -23.4 52.87 -22.46 Q 51.71 -21.52 51.13 -19.66 Q 50.55 -17.8 50.55 -15.03 L 50.55 -15.03 L 50.55 -14.13 Q 50.55 -11.43 51.14 -9.55 Q 51.73 -7.67 52.9 -6.7 Q 54.08 -5.73 55.84 -5.73 L 55.84 -5.73 Q 57.52 -5.73 58.69 -6.7 Q 59.86 -7.67 60.46 -9.55 Q 61.06 -11.43 61.06 -14.13 L 61.06 -14.13 Z M 103.19 -14.99 L 103.19 -14.13 Q 103.19 -9.61 101.54 -6.36 Q 99.88 -3.1 96.98 -1.35 Q 94.08 0.4 90.33 0.4 L 90.33 0.4 Q 86.55 0.4 83.63 -1.35 Q 80.7 -3.1 79.05 -6.36 Q 77.4 -9.61 77.4 -14.13 L 77.4 -14.13 L 77.4 -14.99 Q 77.4 -19.52 79.04 -22.77 Q 80.68 -26.03 83.6 -27.79 Q 86.51 -29.55 90.29 -29.55 L 90.29 -29.55 Q 94.04 -29.55 96.95 -27.79 Q 99.86 -26.03 101.53 -22.77 Q 103.19 -19.52 103.19 -14.99 L 103.19 -14.99 Z M 95.56 -14.13 L 95.56 -15.03 Q 95.56 -17.8 94.95 -19.66 Q 94.34 -21.52 93.16 -22.46 Q 91.98 -23.4 90.29 -23.4 L 90.29 -23.4 Q 88.53 -23.4 87.37 -22.46 Q 86.21 -21.52 85.63 -19.66 Q 85.05 -17.8 85.05 -15.03 L 85.05 -15.03 L 85.05 -14.13 Q 85.05 -11.43 85.64 -9.55 Q 86.23 -7.67 87.4 -6.7 Q 88.57 -5.73 90.33 -5.73 L 90.33 -5.73 Q 92.02 -5.73 93.19 -6.7 Q 94.36 -7.67 94.96 -9.55 Q 95.56 -11.43 95.56 -14.13 L 95.56 -14.13 Z M 122.29 0 L 115.86 0 L 115.9 -6.05 L 122.29 -6.05 Q 124.19 -6.05 125.49 -6.93 Q 126.79 -7.81 127.47 -9.59 Q 128.15 -11.37 128.15 -14.07 L 128.15 -14.07 L 128.15 -15.09 Q 128.15 -17.78 127.48 -19.55 Q 126.81 -21.32 125.48 -22.2 Q 124.15 -23.08 122.17 -23.08 L 122.17 -23.08 L 115.74 -23.08 L 115.74 -29.15 L 122.17 -29.15 Q 126.17 -29.15 129.25 -27.35 Q 132.32 -25.54 134.06 -22.37 Q 135.8 -19.2 135.8 -15.05 L 135.8 -15.05 L 135.8 -14.07 Q 135.8 -9.95 134.06 -6.77 Q 132.32 -3.58 129.28 -1.79 Q 126.23 0 122.29 0 L 122.29 0 Z M 120.21 -29.15 L 120.21 0 L 112.68 0 L 112.68 -29.15 L 120.21 -29.15 Z M 164.79 -6.05 L 164.79 0 L 150.14 0 L 150.14 -6.05 L 164.79 -6.05 Z M 152.78 -29.15 L 152.78 0 L 145.27 0 L 145.27 -29.15 L 152.78 -29.15 Z M 193.94 -6.05 L 193.94 0 L 178.55 0 L 178.55 -6.05 L 193.94 -6.05 Z M 181.21 -29.15 L 181.21 0 L 173.68 0 L 173.68 -29.15 L 181.21 -29.15 Z M 191.96 -17.86 L 191.96 -12.03 L 178.55 -12.03 L 178.55 -17.86 L 191.96 -17.86 Z M 194 -29.15 L 194 -23.08 L 178.55 -23.08 L 178.55 -29.15 L 194 -29.15 Z M 208.58 -29.15 L 213.57 -17.1 L 218.55 -29.15 L 226.64 -29.15 L 217.39 -10.37 L 217.39 0 L 209.76 0 L 209.76 -10.37 L 200.49 -29.15 L 208.58 -29.15 Z M 265.86 -7.85 L 265.86 -7.85 Q 265.86 -8.63 265.53 -9.23 Q 265.2 -9.83 264.17 -10.42 Q 263.14 -11.01 261.04 -11.71 L 261.04 -11.71 Q 259.16 -12.35 257.38 -13.17 Q 255.59 -13.99 254.17 -15.1 Q 252.75 -16.22 251.91 -17.73 Q 251.07 -19.24 251.07 -21.26 L 251.07 -21.26 Q 251.07 -23.82 252.55 -25.68 Q 254.03 -27.53 256.59 -28.54 Q 259.16 -29.55 262.42 -29.55 L 262.42 -29.55 Q 265.64 -29.55 268.12 -28.46 Q 270.59 -27.37 272 -25.32 Q 273.41 -23.28 273.41 -20.44 L 273.41 -20.44 L 265.92 -20.44 Q 265.92 -21.38 265.53 -22.1 Q 265.14 -22.82 264.33 -23.22 Q 263.52 -23.62 262.26 -23.62 L 262.26 -23.62 Q 261.04 -23.62 260.21 -23.28 Q 259.38 -22.94 258.97 -22.39 Q 258.56 -21.84 258.56 -21.16 L 258.56 -21.16 Q 258.56 -20.38 259.2 -19.8 Q 259.84 -19.22 260.98 -18.72 Q 262.12 -18.22 263.62 -17.72 L 263.62 -17.72 Q 266.74 -16.72 268.92 -15.39 Q 271.09 -14.05 272.23 -12.22 Q 273.37 -10.39 273.37 -7.89 L 273.37 -7.89 Q 273.37 -5.23 272.04 -3.37 Q 270.71 -1.52 268.27 -0.56 Q 265.82 0.4 262.52 0.4 L 262.52 0.4 Q 260.24 0.4 258.05 -0.18 Q 255.85 -0.76 254.08 -1.98 Q 252.31 -3.2 251.26 -5.11 Q 250.21 -7.03 250.21 -9.69 L 250.21 -9.69 L 257.74 -9.69 Q 257.74 -8.49 258.03 -7.69 Q 258.32 -6.89 258.92 -6.4 Q 259.52 -5.91 260.42 -5.7 Q 261.32 -5.49 262.52 -5.49 L 262.52 -5.49 Q 263.76 -5.49 264.49 -5.83 Q 265.22 -6.17 265.54 -6.71 Q 265.86 -7.25 265.86 -7.85 Z M 307.95 -14.99 L 307.95 -14.13 Q 307.95 -9.61 306.3 -6.36 Q 304.64 -3.1 301.74 -1.35 Q 298.84 0.4 295.1 0.4 L 295.1 0.4 Q 291.31 0.4 288.39 -1.35 Q 285.47 -3.1 283.81 -6.36 Q 282.16 -9.61 282.16 -14.13 L 282.16 -14.13 L 282.16 -14.99 Q 282.16 -19.52 283.8 -22.77 Q 285.45 -26.03 288.36 -27.79 Q 291.27 -29.55 295.06 -29.55 L 295.06 -29.55 Q 298.8 -29.55 301.71 -27.79 Q 304.62 -26.03 306.29 -22.77 Q 307.95 -19.52 307.95 -14.99 L 307.95 -14.99 Z M 300.32 -14.13 L 300.32 -15.03 Q 300.32 -17.8 299.71 -19.66 Q 299.1 -21.52 297.92 -22.46 Q 296.74 -23.4 295.06 -23.4 L 295.06 -23.4 Q 293.29 -23.4 292.13 -22.46 Q 290.97 -21.52 290.39 -19.66 Q 289.81 -17.8 289.81 -15.03 L 289.81 -15.03 L 289.81 -14.13 Q 289.81 -11.43 290.4 -9.55 Q 290.99 -7.67 292.16 -6.7 Q 293.33 -5.73 295.1 -5.73 L 295.1 -5.73 Q 296.78 -5.73 297.95 -6.7 Q 299.12 -7.67 299.72 -9.55 Q 300.32 -11.43 300.32 -14.13 L 300.32 -14.13 Z M 336.96 -6.05 L 336.96 0 L 322.3 0 L 322.3 -6.05 L 336.96 -6.05 Z M 324.95 -29.15 L 324.95 0 L 317.44 0 L 317.44 -29.15 L 324.95 -29.15 Z M 360.89 -29.15 L 368.39 -29.15 L 368.39 -10.27 Q 368.39 -6.83 366.96 -4.44 Q 365.53 -2.06 362.94 -0.83 Q 360.34 0.4 356.84 0.4 L 356.84 0.4 Q 353.38 0.4 350.75 -0.83 Q 348.11 -2.06 346.65 -4.44 Q 345.19 -6.83 345.19 -10.27 L 345.19 -10.27 L 345.19 -29.15 L 352.74 -29.15 L 352.74 -10.27 Q 352.74 -8.61 353.2 -7.59 Q 353.66 -6.57 354.58 -6.11 Q 355.5 -5.65 356.84 -5.65 L 356.84 -5.65 Q 358.2 -5.65 359.09 -6.11 Q 359.98 -6.57 360.44 -7.59 Q 360.89 -8.61 360.89 -10.27 L 360.89 -10.27 L 360.89 -29.15 Z M 393.2 -29.15 L 393.2 0 L 385.69 0 L 385.69 -29.15 L 393.2 -29.15 Z M 401.81 -29.15 L 401.81 -23.08 L 377.26 -23.08 L 377.26 -29.15 L 401.81 -29.15 Z M 418.67 -29.15 L 418.67 0 L 411.18 0 L 411.18 -29.15 L 418.67 -29.15 Z M 454.37 -14.99 L 454.37 -14.13 Q 454.37 -9.61 452.71 -6.36 Q 451.06 -3.1 448.16 -1.35 Q 445.26 0.4 441.51 0.4 L 441.51 0.4 Q 437.73 0.4 434.81 -1.35 Q 431.88 -3.1 430.23 -6.36 Q 428.58 -9.61 428.58 -14.13 L 428.58 -14.13 L 428.58 -14.99 Q 428.58 -19.52 430.22 -22.77 Q 431.86 -26.03 434.78 -27.79 Q 437.69 -29.55 441.47 -29.55 L 441.47 -29.55 Q 445.22 -29.55 448.13 -27.79 Q 451.04 -26.03 452.7 -22.77 Q 454.37 -19.52 454.37 -14.99 L 454.37 -14.99 Z M 446.74 -14.13 L 446.74 -15.03 Q 446.74 -17.8 446.13 -19.66 Q 445.52 -21.52 444.34 -22.46 Q 443.15 -23.4 441.47 -23.4 L 441.47 -23.4 Q 439.71 -23.4 438.55 -22.46 Q 437.39 -21.52 436.81 -19.66 Q 436.23 -17.8 436.23 -15.03 L 436.23 -15.03 L 436.23 -14.13 Q 436.23 -11.43 436.82 -9.55 Q 437.41 -7.67 438.58 -6.7 Q 439.75 -5.73 441.51 -5.73 L 441.51 -5.73 Q 443.19 -5.73 444.37 -6.7 Q 445.54 -7.67 446.14 -9.55 Q 446.74 -11.43 446.74 -14.13 L 446.74 -14.13 Z M 488.48 -29.15 L 488.48 0 L 480.99 0 L 471.37 -16.86 L 471.37 0 L 463.86 0 L 463.86 -29.15 L 471.37 -29.15 L 480.99 -12.29 L 480.99 -29.15 L 488.48 -29.15 Z M 513.57 -7.85 L 513.57 -7.85 Q 513.57 -8.63 513.24 -9.23 Q 512.91 -9.83 511.88 -10.42 Q 510.85 -11.01 508.74 -11.71 L 508.74 -11.71 Q 506.86 -12.35 505.08 -13.17 Q 503.3 -13.99 501.88 -15.1 Q 500.46 -16.22 499.62 -17.73 Q 498.78 -19.24 498.78 -21.26 L 498.78 -21.26 Q 498.78 -23.82 500.26 -25.68 Q 501.74 -27.53 504.3 -28.54 Q 506.86 -29.55 510.13 -29.55 L 510.13 -29.55 Q 513.35 -29.55 515.82 -28.46 Q 518.29 -27.37 519.71 -25.32 Q 521.12 -23.28 521.12 -20.44 L 521.12 -20.44 L 513.63 -20.44 Q 513.63 -21.38 513.24 -22.1 Q 512.85 -22.82 512.04 -23.22 Q 511.23 -23.62 509.97 -23.62 L 509.97 -23.62 Q 508.74 -23.62 507.91 -23.28 Q 507.08 -22.94 506.67 -22.39 Q 506.26 -21.84 506.26 -21.16 L 506.26 -21.16 Q 506.26 -20.38 506.9 -19.8 Q 507.54 -19.22 508.68 -18.72 Q 509.83 -18.22 511.33 -17.72 L 511.33 -17.72 Q 514.45 -16.72 516.62 -15.39 Q 518.79 -14.05 519.94 -12.22 Q 521.08 -10.39 521.08 -7.89 L 521.08 -7.89 Q 521.08 -5.23 519.75 -3.37 Q 518.41 -1.52 515.97 -0.56 Q 513.53 0.4 510.23 0.4 L 510.23 0.4 Q 507.94 0.4 505.75 -0.18 Q 503.56 -0.76 501.79 -1.98 Q 500.02 -3.2 498.97 -5.11 Q 497.91 -7.03 497.91 -9.69 L 497.91 -9.69 L 505.44 -9.69 Q 505.44 -8.49 505.73 -7.69 Q 506.02 -6.89 506.62 -6.4 Q 507.22 -5.91 508.12 -5.7 Q 509.03 -5.49 510.23 -5.49 L 510.23 -5.49 Q 511.47 -5.49 512.2 -5.83 Q 512.93 -6.17 513.25 -6.71 Q 513.57 -7.25 513.57 -7.85 Z" stroke-linecap="round" />
</g>
</g>
</g>
<g transform="matrix(1.9211538461538462 0 0 1.9211538461538462 640.6455076923074 764.0197551078228)" id="tagline-8a1cf69a-e045-4c9c-a18e-c756e492b0b8-logo"  >
<g style=""  paint-order="stroke"   >
		<g transform="matrix(1 0 0 1 0 0)" id="tagline-8a1cf69a-e045-4c9c-a18e-c756e492b0b8-logo-path-0"  >
<path style="stroke: none; stroke-width: 0; stroke-dasharray: none; stroke-linecap: butt; stroke-dashoffset: 0; stroke-linejoin: miter; stroke-miterlimit: 4; fill: rgb(209,216,234); fill-rule: nonzero; opacity: 1;"  paint-order="stroke"  transform=" translate(-314.295, 9.095)" d="M 9.62 0.34 C 12.36 0.34 14.54 -0.62 15.89 -1.99 L 14.26 -3.62 C 13.27 -2.52 11.52 -1.8 9.62 -1.8 C 5.21 -1.8 3.53 -4.73 3.53 -9.1 C 3.53 -13.44 5.21 -16.39 9.62 -16.39 C 11.76 -16.39 13.03 -15.74 14.02 -14.64 L 15.72 -16.32 C 14.38 -17.69 12.36 -18.53 9.62 -18.53 C 3.58 -18.53 1.25 -14.26 1.25 -9.1 C 1.25 -3.94 3.58 0.34 9.62 0.34 Z M 38.81 -4.51 C 38.47 -5.95 37.82 -7.18 36.91 -7.99 C 38.71 -8.71 39.65 -10.13 39.65 -12.74 C 39.65 -16.9 37.22 -18.05 32.81 -18.05 L 27.19 -18.05 L 27.19 0 L 29.45 0 L 29.45 -7.42 L 32.81 -7.42 C 34.15 -7.42 36.02 -6.72 36.55 -4.34 L 37.13 -1.75 C 37.3 -0.98 37.44 -0.41 37.7 0 L 40.15 0 C 39.86 -0.48 39.62 -1.03 39.41 -1.97 Z M 29.45 -15.91 L 33.05 -15.91 C 36.14 -15.91 37.37 -15.29 37.37 -12.77 C 37.37 -10.25 36.26 -9.58 33.12 -9.58 L 29.45 -9.58 Z M 65.74 0 L 59.11 -18.05 L 56.86 -18.05 L 50.23 0 L 52.61 0 L 54.26 -4.63 L 61.68 -4.63 L 63.34 0 Z M 57.98 -14.98 L 60.96 -6.62 L 54.98 -6.62 Z M 78.84 0 L 78.84 -8.16 L 87.67 -8.16 L 87.67 -10.32 L 78.84 -10.32 L 78.84 -15.86 L 88.34 -15.86 L 88.34 -18.05 L 76.58 -18.05 L 76.58 0 Z M 104.78 -15.89 L 104.78 0 L 107.04 0 L 107.04 -15.89 L 112.51 -15.89 L 112.51 -18.05 L 99.29 -18.05 L 99.29 -15.89 Z M 129.79 0.34 C 133.92 0.34 136.82 -1.18 136.82 -5.35 C 136.82 -8.38 134.35 -9.82 131.66 -10.25 L 127.87 -10.85 C 125.83 -11.16 124.73 -11.95 124.73 -13.1 C 124.73 -15.6 127.15 -16.32 129.53 -16.32 C 132.41 -16.32 133.82 -14.66 134.23 -13.32 L 136.58 -13.32 C 136.49 -15.58 134.47 -18.53 129.26 -18.53 C 125.11 -18.53 122.4 -16.42 122.4 -13.1 C 122.4 -10.27 124.78 -8.9 127.22 -8.52 L 131.02 -7.92 C 133.22 -7.56 134.47 -6.91 134.47 -5.21 C 134.47 -2.98 133.1 -1.92 129.58 -1.92 C 126.12 -1.92 124.82 -3.53 124.51 -5.28 L 122.18 -5.28 C 122.18 -2.5 124.27 0.34 129.79 0.34 Z M 150.89 0 L 150.89 -13.8 L 157.66 -2.33 L 159.86 -2.33 L 166.39 -13.8 L 166.39 0 L 168.65 0 L 168.65 -18.05 L 166.39 -18.05 L 158.76 -5.04 L 150.89 -18.05 L 148.63 -18.05 L 148.63 0 Z M 195 0 L 188.38 -18.05 L 186.12 -18.05 L 179.5 0 L 181.87 0 L 183.53 -4.63 L 190.94 -4.63 L 192.6 0 Z M 187.25 -14.98 L 190.22 -6.62 L 184.25 -6.62 Z M 208.1 0 L 208.1 -14.09 L 218.38 0 L 220.63 0 L 220.63 -18.05 L 218.38 -18.05 L 218.38 -3.96 L 208.1 -18.05 L 205.85 -18.05 L 205.85 0 Z M 240.1 0.34 C 244.22 0.34 247.13 -1.18 247.13 -5.35 C 247.13 -8.38 244.66 -9.82 241.97 -10.25 L 238.18 -10.85 C 236.14 -11.16 235.03 -11.95 235.03 -13.1 C 235.03 -15.6 237.46 -16.32 239.83 -16.32 C 242.71 -16.32 244.13 -14.66 244.54 -13.32 L 246.89 -13.32 C 246.79 -15.58 244.78 -18.53 239.57 -18.53 C 235.42 -18.53 232.7 -16.42 232.7 -13.1 C 232.7 -10.27 235.08 -8.9 237.53 -8.52 L 241.32 -7.92 C 243.53 -7.56 244.78 -6.91 244.78 -5.21 C 244.78 -2.98 243.41 -1.92 239.88 -1.92 C 236.42 -1.92 235.13 -3.53 234.82 -5.28 L 232.49 -5.28 C 232.49 -2.5 234.58 0.34 240.1 0.34 Z M 261.19 0 L 261.19 -8.18 L 270.74 -8.18 L 270.74 0 L 273 0 L 273 -18.05 L 270.74 -18.05 L 270.74 -10.34 L 261.19 -10.34 L 261.19 -18.05 L 258.94 -18.05 L 258.94 0 Z M 287.98 0 L 287.98 -18.05 L 285.58 -18.05 L 285.58 0 Z M 302.81 0 L 302.81 -7.08 L 306.17 -7.08 C 310.61 -7.08 313.01 -8.38 313.01 -12.58 C 313.01 -16.73 310.58 -18.05 306.17 -18.05 L 300.55 -18.05 L 300.55 0 Z M 302.81 -15.91 L 306.41 -15.91 C 309.5 -15.91 310.73 -15.12 310.73 -12.6 C 310.73 -10.08 309.62 -9.24 306.48 -9.24 L 302.81 -9.24 Z M 354.72 0 L 348.1 -18.05 L 345.84 -18.05 L 339.22 0 L 341.59 0 L 343.25 -4.63 L 350.66 -4.63 L 352.32 0 Z M 346.97 -14.98 L 349.94 -6.62 L 343.97 -6.62 Z M 367.82 0 L 367.82 -14.09 L 378.1 0 L 380.35 0 L 380.35 -18.05 L 378.1 -18.05 L 378.1 -3.96 L 367.82 -18.05 L 365.57 -18.05 L 365.57 0 Z M 398.11 0 C 403.58 0 406.85 -2.16 406.85 -9.34 C 406.85 -16.13 403.54 -18.05 398.11 -18.05 L 392.93 -18.05 L 392.93 0 Z M 395.18 -15.89 L 398.11 -15.89 C 402.67 -15.89 404.54 -14.18 404.54 -9.34 C 404.54 -4.01 402.7 -2.16 398.11 -2.16 L 395.18 -2.16 Z M 436.87 0 L 436.87 -18.05 L 434.47 -18.05 L 434.47 0 Z M 451.7 0 L 451.7 -14.09 L 461.98 0 L 464.23 0 L 464.23 -18.05 L 461.98 -18.05 L 461.98 -3.96 L 451.7 -18.05 L 449.45 -18.05 L 449.45 0 Z M 480.94 -15.89 L 480.94 0 L 483.19 0 L 483.19 -15.89 L 488.66 -15.89 L 488.66 -18.05 L 475.44 -18.05 L 475.44 -15.89 Z M 502.13 -8.16 L 511.1 -8.16 L 511.1 -10.32 L 502.13 -10.32 L 502.13 -15.86 L 511.66 -15.86 L 511.66 -18.05 L 499.87 -18.05 L 499.87 0 L 511.73 0 L 511.73 -2.16 L 502.13 -2.16 Z M 530.57 0.34 C 536.62 0.34 538.92 -3.36 538.92 -8.04 C 538.92 -9.02 538.92 -9.46 538.9 -10.2 L 530.45 -10.2 L 530.45 -8.04 L 536.59 -8.04 C 536.59 -4.39 535.13 -1.82 530.57 -1.82 C 526.03 -1.82 524.47 -4.85 524.47 -9.1 C 524.47 -13.32 526.03 -16.39 530.57 -16.39 C 533.9 -16.39 535.56 -15 536.18 -13.32 L 538.61 -13.32 C 538.13 -14.88 536.66 -18.53 530.57 -18.53 C 524.52 -18.53 522.19 -14.26 522.19 -9.1 C 522.19 -3.94 524.52 0.34 530.57 0.34 Z M 562.37 -4.51 C 562.03 -5.95 561.38 -7.18 560.47 -7.99 C 562.27 -8.71 563.21 -10.13 563.21 -12.74 C 563.21 -16.9 560.78 -18.05 556.37 -18.05 L 550.75 -18.05 L 550.75 0 L 553.01 0 L 553.01 -7.42 L 556.37 -7.42 C 557.71 -7.42 559.58 -6.72 560.11 -4.34 L 560.69 -1.75 C 560.86 -0.98 561 -0.41 561.26 0 L 563.71 0 C 563.42 -0.48 563.18 -1.03 562.97 -1.97 Z M 553.01 -15.91 L 556.61 -15.91 C 559.7 -15.91 560.93 -15.29 560.93 -12.77 C 560.93 -10.25 559.82 -9.58 556.68 -9.58 L 553.01 -9.58 Z M 577.82 0 L 577.82 -18.05 L 575.42 -18.05 L 575.42 0 Z M 594.53 -15.89 L 594.53 0 L 596.78 0 L 596.78 -15.89 L 602.26 -15.89 L 602.26 -18.05 L 589.03 -18.05 L 589.03 -15.89 Z M 621.17 0 L 621.17 -8.54 L 627.34 -18.05 L 624.62 -18.05 L 620.04 -10.8 L 615.5 -18.05 L 612.74 -18.05 L 618.91 -8.54 L 618.91 0 Z" stroke-linecap="round" />
</g>
</g>
</g>
</svg>